<svg width="173" height="24" viewBox="0 0 173 24" fill="none" xmlns="http://www.w3.org/2000/svg">
<path d="M0 13.6625C0 12.1321 0.307205 10.777 0.921614 9.59693C1.55409 8.4169 2.40342 7.50423 3.4696 6.8589C4.55386 6.19513 5.75557 5.86325 7.07474 5.86325C8.05057 5.86325 9.00832 6.08451 9.94801 6.52702C10.9058 6.95109 11.6647 7.52266 12.2249 8.24174V0.885019H15.3422V21.3511H12.2249V19.0556C11.719 19.7931 11.0142 20.4015 10.1106 20.8809C9.22517 21.3603 8.20417 21.6 7.04763 21.6C5.74653 21.6 4.55386 21.2681 3.4696 20.6044C2.40342 19.9222 1.55409 18.9818 0.921614 17.7834C0.307205 16.5665 0 15.1928 0 13.6625ZM12.2249 13.7178C12.2249 12.6668 12.0081 11.7542 11.5744 10.9798C11.1588 10.2054 10.6076 9.61537 9.9209 9.20973C9.23421 8.8041 8.4933 8.60128 7.69818 8.60128C6.90307 8.60128 6.16216 8.8041 5.47547 9.20973C4.78878 9.59693 4.22858 10.1777 3.79488 10.9521C3.37925 11.7081 3.17144 12.6115 3.17144 13.6625C3.17144 14.7134 3.37925 15.6353 3.79488 16.4282C4.22858 17.221 4.78878 17.8294 5.47547 18.2535C6.18023 18.6592 6.92114 18.862 7.69818 18.862C8.4933 18.862 9.23421 18.6592 9.9209 18.2535C10.6076 17.8479 11.1588 17.2579 11.5744 16.4835C12.0081 15.6907 12.2249 14.7688 12.2249 13.7178Z" fill="white"/>
<path d="M33.0896 13.3583C33.0896 13.9298 33.0534 14.4461 32.9811 14.907H21.5694C21.6598 16.1239 22.1025 17.1012 22.8976 17.8387C23.6927 18.5762 24.6686 18.9449 25.8251 18.9449C27.4876 18.9449 28.6622 18.2351 29.3489 16.8154H32.683C32.2312 18.2166 31.409 19.369 30.2163 20.2725C29.0417 21.1575 27.578 21.6 25.8251 21.6C24.3975 21.6 23.1145 21.2773 21.976 20.632C20.8556 19.9682 19.9701 19.0464 19.3196 17.8663C18.6871 16.6679 18.3709 15.285 18.3709 13.7178C18.3709 12.1506 18.6781 10.777 19.2925 9.59693C19.925 8.39846 20.8014 7.47657 21.9218 6.83124C23.0602 6.18592 24.3613 5.86325 25.8251 5.86325C27.2346 5.86325 28.4905 6.1767 29.5929 6.80358C30.6952 7.43047 31.5536 8.31549 32.168 9.45864C32.7824 10.5834 33.0896 11.8832 33.0896 13.3583ZM29.8639 12.3626C29.8459 11.201 29.4393 10.2699 28.6441 9.56927C27.849 8.86863 26.8642 8.51831 25.6896 8.51831C24.6234 8.51831 23.7108 8.86863 22.9518 9.56927C22.1928 10.2515 21.7411 11.1826 21.5965 12.3626H29.8639Z" fill="white"/>
<path d="M41.9042 18.5301L46.1328 6.11216H49.4126L43.7203 21.3511H40.0339L34.3687 6.11216H37.6756L41.9042 18.5301Z" fill="white"/>
<path d="M52.9953 21.5447C52.4351 21.5447 51.9653 21.3511 51.5858 20.9639C51.2063 20.5767 51.0166 20.0973 51.0166 19.5257C51.0166 18.9542 51.2063 18.4748 51.5858 18.0876C51.9653 17.7004 52.4351 17.5068 52.9953 17.5068C53.5375 17.5068 53.9983 17.7004 54.3777 18.0876C54.7572 18.4748 54.947 18.9542 54.947 19.5257C54.947 20.0973 54.7572 20.5767 54.3777 20.9639C53.9983 21.3511 53.5375 21.5447 52.9953 21.5447Z" fill="white"/>
<path d="M64.5483 8.68425H61.7835V21.3511H58.6663V8.68425H56.9043V6.11216H58.6663V5.03355C58.6663 3.28194 59.118 2.00973 60.0216 1.2169C60.9432 0.405633 62.3798 0 64.3315 0V2.6274C63.3918 2.6274 62.7322 2.81178 62.3527 3.18054C61.9732 3.53086 61.7835 4.14853 61.7835 5.03355V6.11216H64.5483V8.68425Z" fill="white"/>
<path d="M68.8591 4.09321C68.2989 4.09321 67.829 3.89962 67.4495 3.51242C67.07 3.12522 66.8803 2.64584 66.8803 2.07426C66.8803 1.50269 67.07 1.0233 67.4495 0.636108C67.829 0.248911 68.2989 0.055313 68.8591 0.055313C69.4012 0.055313 69.862 0.248911 70.2415 0.636108C70.621 1.0233 70.8107 1.50269 70.8107 2.07426C70.8107 2.64584 70.621 3.12522 70.2415 3.51242C69.862 3.89962 69.4012 4.09321 68.8591 4.09321ZM70.377 6.11216V21.3511H67.2869V6.11216H70.377Z" fill="white"/>
<path d="M81.9696 5.86325C83.1442 5.86325 84.1923 6.11216 85.1139 6.60999C86.0536 7.10781 86.7855 7.84533 87.3096 8.82254C87.8336 9.79974 88.0956 10.9798 88.0956 12.3626V21.3511H85.0326V12.8328C85.0326 11.4684 84.6983 10.4266 84.0297 9.70755C83.3611 8.97004 82.4485 8.60128 81.292 8.60128C80.1354 8.60128 79.2138 8.97004 78.5271 9.70755C77.8585 10.4266 77.5242 11.4684 77.5242 12.8328V21.3511H74.4341V6.11216H77.5242V7.85455C78.0302 7.22766 78.6717 6.73905 79.4487 6.38873C80.2438 6.03841 81.0841 5.86325 81.9696 5.86325Z" fill="white"/>
<path d="M91.0072 13.6625C91.0072 12.1321 91.3144 10.777 91.9288 9.59693C92.5613 8.4169 93.4107 7.50423 94.4768 6.8589C95.5611 6.19513 96.7538 5.86325 98.0549 5.86325C99.2295 5.86325 100.25 6.10295 101.118 6.58233C102.003 7.04328 102.708 7.62407 103.232 8.32471V6.11216H106.349V21.3511H103.232V19.0832C102.708 19.8023 101.994 20.4015 101.091 20.8809C100.187 21.3603 99.1572 21.6 98.0006 21.6C96.7176 21.6 95.543 21.2681 94.4768 20.6044C93.4107 19.9222 92.5613 18.9818 91.9288 17.7834C91.3144 16.5665 91.0072 15.1928 91.0072 13.6625ZM103.232 13.7178C103.232 12.6668 103.015 11.7542 102.582 10.9798C102.166 10.2054 101.615 9.61537 100.928 9.20973C100.241 8.8041 99.5005 8.60128 98.7054 8.60128C97.9103 8.60128 97.1694 8.8041 96.4827 9.20973C95.796 9.59693 95.2358 10.1777 94.8021 10.9521C94.3865 11.7081 94.1787 12.6115 94.1787 13.6625C94.1787 14.7134 94.3865 15.6353 94.8021 16.4282C95.2358 17.221 95.796 17.8294 96.4827 18.2535C97.1875 18.6592 97.9284 18.862 98.7054 18.862C99.5005 18.862 100.241 18.6592 100.928 18.2535C101.615 17.8479 102.166 17.2579 102.582 16.4835C103.015 15.6907 103.232 14.7688 103.232 13.7178Z" fill="white"/>
<path d="M117.944 5.86325C119.118 5.86325 120.166 6.11216 121.088 6.60999C122.028 7.10781 122.76 7.84533 123.284 8.82254C123.808 9.79974 124.07 10.9798 124.07 12.3626V21.3511H121.007V12.8328C121.007 11.4684 120.672 10.4266 120.004 9.70755C119.335 8.97004 118.423 8.60128 117.266 8.60128C116.109 8.60128 115.188 8.97004 114.501 9.70755C113.833 10.4266 113.498 11.4684 113.498 12.8328V21.3511H110.408V6.11216H113.498V7.85455C114.004 7.22766 114.646 6.73905 115.423 6.38873C116.218 6.03841 117.058 5.86325 117.944 5.86325Z" fill="white"/>
<path d="M126.981 13.7178C126.981 12.1506 127.288 10.777 127.903 9.59693C128.535 8.39846 129.403 7.47657 130.505 6.83124C131.607 6.18592 132.872 5.86325 134.3 5.86325C136.107 5.86325 137.598 6.30576 138.773 7.19078C139.965 8.05736 140.769 9.30192 141.185 10.9245H137.851C137.58 10.1685 137.146 9.57849 136.55 9.15442C135.953 8.73035 135.204 8.51831 134.3 8.51831C133.035 8.51831 132.023 8.97926 131.264 9.90115C130.523 10.8046 130.153 12.0768 130.153 13.7178C130.153 15.3588 130.523 16.6402 131.264 17.5621C132.023 18.484 133.035 18.9449 134.3 18.9449C136.089 18.9449 137.273 18.1429 137.851 16.5388H141.185C140.751 18.0876 139.938 19.3229 138.745 20.2448C137.553 21.1483 136.071 21.6 134.3 21.6C132.872 21.6 131.607 21.2773 130.505 20.632C129.403 19.9682 128.535 19.0464 127.903 17.8663C127.288 16.6679 126.981 15.285 126.981 13.7178Z" fill="white"/>
<path d="M157.953 13.3583C157.953 13.9298 157.917 14.4461 157.845 14.907H146.433C146.523 16.1239 146.966 17.1012 147.761 17.8387C148.556 18.5762 149.532 18.9449 150.689 18.9449C152.351 18.9449 153.526 18.2351 154.213 16.8154H157.547C157.095 18.2166 156.273 19.369 155.08 20.2725C153.905 21.1575 152.442 21.6 150.689 21.6C149.261 21.6 147.978 21.2773 146.84 20.632C145.719 19.9682 144.834 19.0464 144.183 17.8663C143.551 16.6679 143.234 15.285 143.234 13.7178C143.234 12.1506 143.542 10.777 144.156 9.59693C144.789 8.39846 145.665 7.47657 146.785 6.83124C147.924 6.18592 149.225 5.86325 150.689 5.86325C152.098 5.86325 153.354 6.1767 154.456 6.80358C155.559 7.43047 156.417 8.31549 157.032 9.45864C157.646 10.5834 157.953 11.8832 157.953 13.3583ZM154.728 12.3626C154.709 11.201 154.303 10.2699 153.508 9.56927C152.713 8.86863 151.728 8.51831 150.553 8.51831C149.487 8.51831 148.574 8.86863 147.815 9.56927C147.056 10.2515 146.605 11.1826 146.46 12.3626H154.728Z" fill="white"/>
<path d="M52.9957 21.5447C52.4355 21.5447 51.9656 21.3511 51.5861 20.9639C51.2066 20.5767 51.0169 20.0974 51.0169 19.5258C51.0169 18.9542 51.2066 18.4748 51.5861 18.0876C51.9656 17.7004 52.4355 17.5068 52.9957 17.5068C53.5378 17.5068 53.9986 17.7004 54.3781 18.0876C54.7576 18.4748 54.9473 18.9542 54.9473 19.5258C54.9473 20.0974 54.7576 20.5767 54.3781 20.9639C53.9986 21.3511 53.5378 21.5447 52.9957 21.5447Z" fill="#49AA26"/>
<path d="M173 16.7249C173 17.5056 172.772 18.2395 172.316 18.9265C171.878 19.6135 171.222 20.1913 170.346 20.6597C169.489 21.1281 168.468 21.4092 167.282 21.5029V23.4H165.504V21.5029C163.79 21.3623 162.403 20.9017 161.346 20.121C160.288 19.3403 159.759 18.3098 159.759 17.0294H163.096C163.151 17.6383 163.379 18.1458 163.78 18.5518C164.182 18.9421 164.756 19.192 165.504 19.3013V14.1486C164.282 13.8831 163.288 13.6177 162.522 13.3522C161.756 13.0712 161.099 12.634 160.552 12.0406C160.023 11.4473 159.759 10.6354 159.759 9.60482C159.759 8.30884 160.288 7.23926 161.346 6.3961C162.403 5.53731 163.79 5.03766 165.504 4.89713V3H167.282V4.89713C168.887 5.02204 170.173 5.45924 171.14 6.20873C172.125 6.9426 172.681 7.95752 172.808 9.2535H169.471C169.416 8.76946 169.197 8.34007 168.814 7.96533C168.431 7.57497 167.921 7.30953 167.282 7.169V12.228C168.504 12.4778 169.498 12.7433 170.264 13.0243C171.03 13.2898 171.678 13.7192 172.207 14.3125C172.736 14.8902 173 15.6944 173 16.7249ZM162.932 9.46429C162.932 10.1045 163.151 10.6041 163.589 10.9633C164.045 11.3224 164.683 11.6113 165.504 11.8299V7.09874C164.72 7.17681 164.09 7.41883 163.616 7.8248C163.16 8.23077 162.932 8.77727 162.932 9.46429ZM167.282 19.3013C168.085 19.192 168.714 18.9187 169.17 18.4815C169.626 18.0287 169.854 17.49 169.854 16.8654C169.854 16.2409 169.626 15.7568 169.17 15.4133C168.732 15.0542 168.103 14.7653 167.282 14.5467V19.3013Z" fill="#49AA26"/>
</svg>
